<svg width="72" height="72" viewBox="0 0 72 72" fill="none" xmlns="http://www.w3.org/2000/svg">
<g clip-path="url(#clip0_1804_51224)">
<path d="M33.9697 5.50208H38.122V9.65436H33.9697V5.50208Z" fill="url(#paint0_linear_1804_51224)"/>
<path d="M41.1125 6.47876H30.9798C30.7502 6.47876 30.564 6.29309 30.564 6.06348V0.415955C30.564 0.18634 30.7502 0.00012207 30.9798 0.00012207H41.1125C41.3421 0.00012207 41.5283 0.18634 41.5283 0.415955V6.06348C41.5283 6.29309 41.3421 6.47876 41.1125 6.47876Z" fill="url(#paint1_linear_1804_51224)"/>
<path d="M38.2731 6.47864H33.8159C33.6605 6.47864 33.5347 6.35284 33.5347 6.19739V0.28125C33.5347 0.125793 33.6605 0 33.8159 0H38.2731C38.4285 0 38.5543 0.125793 38.5543 0.28125V6.19739C38.5543 6.35284 38.4285 6.47864 38.2731 6.47864Z" fill="url(#paint2_linear_1804_51224)"/>
<path d="M20.2157 12.7739L15.028 16.8559L12.9384 14.2C12.3836 13.4946 12.505 12.4735 13.2103 11.9186L15.8448 9.84553C16.5501 9.29072 17.5713 9.41267 18.1261 10.118L20.2157 12.7739Z" fill="url(#paint3_linear_1804_51224)"/>
<path d="M51.8774 12.7739L57.0652 16.8559L59.1548 14.2C59.7096 13.4946 59.5876 12.4735 58.8829 11.9186L56.2484 9.84553C55.543 9.29072 54.5219 9.41267 53.967 10.118L51.8774 12.7739Z" fill="url(#paint4_linear_1804_51224)"/>
<path d="M68.1537 39.8919C68.1537 57.6249 53.7781 72 36.0456 72C18.3126 72 3.9375 57.6249 3.9375 39.8919C3.9375 22.1594 18.3126 7.78381 36.0456 7.78381C53.7781 7.78381 68.1537 22.1594 68.1537 39.8919Z" fill="url(#paint5_linear_1804_51224)"/>
<path d="M61.8322 39.8919C61.8322 54.134 50.2866 65.6796 36.0445 65.6796C21.8024 65.6796 10.2568 54.134 10.2568 39.8919C10.2568 25.6498 21.8024 14.1042 36.0445 14.1042C50.2866 14.1042 61.8322 25.6498 61.8322 39.8919Z" fill="url(#paint6_linear_1804_51224)"/>
<path d="M58.322 39.892C58.322 52.1939 48.3492 62.1667 36.0472 62.1667C23.7453 62.1667 13.7725 52.1939 13.7725 39.892C13.7725 27.59 23.7453 17.6172 36.0472 17.6172C48.3492 17.6172 58.322 27.59 58.322 39.892Z" fill="url(#paint7_linear_1804_51224)"/>
<path d="M47.991 23.4146C44.6358 20.9773 40.5082 19.5392 36.0439 19.5392V39.8919L47.991 23.4146Z" fill="url(#paint8_linear_1804_51224)"/>
<path d="M34.9849 19.5161H37.1025V22.8307H34.9849V19.5161Z" fill="url(#paint9_linear_1804_51224)"/>
<path d="M34.9849 56.9526H37.1025V60.2678H34.9849V56.9526Z" fill="url(#paint10_linear_1804_51224)"/>
<path d="M53.1079 38.8328H56.423V40.9504H53.1079V38.8328Z" fill="url(#paint11_linear_1804_51224)"/>
<path d="M15.6709 38.8328H18.9855V40.9504H15.6709V38.8328Z" fill="url(#paint12_linear_1804_51224)"/>
<path d="M37.9611 39.8919C37.9611 40.9504 37.103 41.8085 36.0445 41.8085C34.986 41.8085 34.1279 40.9504 34.1279 39.8919C34.1279 38.8334 34.986 37.9753 36.0445 37.9753C37.103 37.9753 37.9611 38.8334 37.9611 39.8919Z" fill="url(#paint13_linear_1804_51224)"/>
<path d="M27.3807 19.3668C25.1603 20.304 23.1257 21.5916 21.3437 23.1599L14.4536 16.1281C14.6585 15.9424 14.8645 15.7606 15.0732 15.5798C15.1359 15.5255 15.1996 15.4733 15.2633 15.4189C15.4089 15.2958 15.5555 15.1711 15.7028 15.0514C15.7824 14.986 15.8626 14.9223 15.9423 14.858C16.0763 14.7493 16.212 14.6427 16.3499 14.5356C16.4344 14.4686 16.5201 14.4032 16.6069 14.3373C16.741 14.2351 16.875 14.1346 17.009 14.0357C17.0986 13.9703 17.1881 13.9044 17.2776 13.8407C17.4133 13.7418 17.5507 13.644 17.688 13.5485C17.777 13.4864 17.8665 13.4238 17.9561 13.3633C18.1 13.2661 18.2433 13.1683 18.3889 13.0728C18.4752 13.0167 18.5598 12.9607 18.6443 12.9047C18.8058 12.8014 18.9684 12.6992 19.1332 12.5965C19.2036 12.5536 19.2739 12.5092 19.3442 12.4658C19.5787 12.3218 19.8166 12.1796 20.0561 12.0422L27.3807 19.3668Z" fill="url(#paint14_linear_1804_51224)"/>
<path d="M33.9335 7.8548L33.9302 7.87073L46.0404 19.9815C46.4079 20.1661 46.7699 20.36 47.1259 20.5638V9.74719C43.6718 8.47772 39.9402 7.78394 36.0461 7.78394C35.3359 7.78394 34.6317 7.80975 33.9335 7.8548Z" fill="url(#paint15_linear_1804_51224)"/>
</g>
<defs>
<linearGradient id="paint0_linear_1804_51224" x1="36.0461" y1="1.34971" x2="36.0461" y2="8.80342" gradientUnits="userSpaceOnUse">
<stop stop-color="#FFD00D"/>
<stop offset="0.2378" stop-color="#FFCB0E"/>
<stop offset="0.5353" stop-color="#FFBB11"/>
<stop offset="0.8632" stop-color="#FFA215"/>
<stop offset="1" stop-color="#FF9517"/>
</linearGradient>
<linearGradient id="paint1_linear_1804_51224" x1="34.9162" y1="1.61325" x2="39.6462" y2="8.42151" gradientUnits="userSpaceOnUse">
<stop stop-color="#FFD00D"/>
<stop offset="0.2378" stop-color="#FFCB0E"/>
<stop offset="0.5353" stop-color="#FFBB11"/>
<stop offset="0.8632" stop-color="#FFA215"/>
<stop offset="1" stop-color="#FF9517"/>
</linearGradient>
<linearGradient id="paint2_linear_1804_51224" x1="34.4708" y1="-1.6563" x2="37.4187" y2="7.51495" gradientUnits="userSpaceOnUse">
<stop stop-color="#FFD00D"/>
<stop offset="0.2378" stop-color="#FFCB0E"/>
<stop offset="0.5353" stop-color="#FFBB11"/>
<stop offset="0.8632" stop-color="#FFA215"/>
<stop offset="1" stop-color="#FF9517"/>
</linearGradient>
<linearGradient id="paint3_linear_1804_51224" x1="12.5381" y1="10.7164" x2="19.2647" y2="15.2507" gradientUnits="userSpaceOnUse">
<stop stop-color="#FFD00D"/>
<stop offset="0.2378" stop-color="#FFCB0E"/>
<stop offset="0.5353" stop-color="#FFBB11"/>
<stop offset="0.8632" stop-color="#FFA215"/>
<stop offset="1" stop-color="#FF9517"/>
</linearGradient>
<linearGradient id="paint4_linear_1804_51224" x1="59.5474" y1="10.7101" x2="52.8209" y2="15.2444" gradientUnits="userSpaceOnUse">
<stop stop-color="#FFD00D"/>
<stop offset="0.2378" stop-color="#FFCB0E"/>
<stop offset="0.5353" stop-color="#FFBB11"/>
<stop offset="0.8632" stop-color="#FFA215"/>
<stop offset="1" stop-color="#FF9517"/>
</linearGradient>
<linearGradient id="paint5_linear_1804_51224" x1="3.93747" y1="39.8919" x2="67.2849" y2="39.8919" gradientUnits="userSpaceOnUse">
<stop stop-color="#445EA0"/>
<stop offset="0.3216" stop-color="#415A9B"/>
<stop offset="0.6926" stop-color="#364D8D"/>
<stop offset="1" stop-color="#2A3D7C"/>
</linearGradient>
<linearGradient id="paint6_linear_1804_51224" x1="61.8317" y1="39.8919" x2="10.9547" y2="39.8919" gradientUnits="userSpaceOnUse">
<stop stop-color="#445EA0"/>
<stop offset="0.3216" stop-color="#415A9B"/>
<stop offset="0.6926" stop-color="#364D8D"/>
<stop offset="1" stop-color="#2A3D7C"/>
</linearGradient>
<linearGradient id="paint7_linear_1804_51224" x1="26.3686" y1="30.2134" x2="57.8699" y2="61.7147" gradientUnits="userSpaceOnUse">
<stop stop-color="#FFFCF8"/>
<stop offset="0.1875" stop-color="#FAF8F6"/>
<stop offset="0.4041" stop-color="#ECEEF2"/>
<stop offset="0.6353" stop-color="#D5DCEA"/>
<stop offset="0.875" stop-color="#B5C4DF"/>
<stop offset="1" stop-color="#A1B5D8"/>
</linearGradient>
<linearGradient id="paint8_linear_1804_51224" x1="37.4864" y1="25.131" x2="44.5134" y2="35.2457" gradientUnits="userSpaceOnUse">
<stop stop-color="#FF4974"/>
<stop offset="0.3262" stop-color="#FE4672"/>
<stop offset="0.5324" stop-color="#FB3E6C"/>
<stop offset="0.7054" stop-color="#F52F60"/>
<stop offset="0.8591" stop-color="#EE1A51"/>
<stop offset="1" stop-color="#E4003D"/>
</linearGradient>
<linearGradient id="paint9_linear_1804_51224" x1="34.9851" y1="21.1735" x2="37.1027" y2="21.1735" gradientUnits="userSpaceOnUse">
<stop stop-color="#445EA0"/>
<stop offset="0.3216" stop-color="#415A9B"/>
<stop offset="0.6926" stop-color="#364D8D"/>
<stop offset="1" stop-color="#2A3D7C"/>
</linearGradient>
<linearGradient id="paint10_linear_1804_51224" x1="34.9851" y1="58.6104" x2="37.1027" y2="58.6104" gradientUnits="userSpaceOnUse">
<stop stop-color="#445EA0"/>
<stop offset="0.3216" stop-color="#415A9B"/>
<stop offset="0.6926" stop-color="#364D8D"/>
<stop offset="1" stop-color="#2A3D7C"/>
</linearGradient>
<linearGradient id="paint11_linear_1804_51224" x1="54.7657" y1="38.8331" x2="54.7657" y2="40.9507" gradientUnits="userSpaceOnUse">
<stop stop-color="#445EA0"/>
<stop offset="0.3216" stop-color="#415A9B"/>
<stop offset="0.6926" stop-color="#364D8D"/>
<stop offset="1" stop-color="#2A3D7C"/>
</linearGradient>
<linearGradient id="paint12_linear_1804_51224" x1="17.3283" y1="38.8331" x2="17.3283" y2="40.9507" gradientUnits="userSpaceOnUse">
<stop stop-color="#445EA0"/>
<stop offset="0.3216" stop-color="#415A9B"/>
<stop offset="0.6926" stop-color="#364D8D"/>
<stop offset="1" stop-color="#2A3D7C"/>
</linearGradient>
<linearGradient id="paint13_linear_1804_51224" x1="35.6595" y1="39.3378" x2="37.271" y2="41.6575" gradientUnits="userSpaceOnUse">
<stop stop-color="#FFD00D"/>
<stop offset="0.2378" stop-color="#FFCB0E"/>
<stop offset="0.5353" stop-color="#FFBB11"/>
<stop offset="0.8632" stop-color="#FFA215"/>
<stop offset="1" stop-color="#FF9517"/>
</linearGradient>
<linearGradient id="paint14_linear_1804_51224" x1="22.2221" y1="19.1233" x2="16.1053" y2="13.0064" gradientUnits="userSpaceOnUse">
<stop stop-color="#2A3D7C" stop-opacity="0"/>
<stop offset="0.3949" stop-color="#273A77" stop-opacity="0.396078"/>
<stop offset="0.8504" stop-color="#1E3069" stop-opacity="0.85098"/>
<stop offset="1" stop-color="#1A2B63"/>
</linearGradient>
<linearGradient id="paint15_linear_1804_51224" x1="44.2889" y1="13.3189" x2="35.8644" y2="3.21751" gradientUnits="userSpaceOnUse">
<stop stop-color="#2A3D7C" stop-opacity="0"/>
<stop offset="0.3949" stop-color="#273A77" stop-opacity="0.396078"/>
<stop offset="0.8504" stop-color="#1E3069" stop-opacity="0.85098"/>
<stop offset="1" stop-color="#1A2B63"/>
</linearGradient>
<clipPath id="clip0_1804_51224">
<rect width="72" height="72" fill="white"/>
</clipPath>
</defs>
</svg>
